<svg width="369" height="144" viewBox="0 0 369 144" fill="none" xmlns="http://www.w3.org/2000/svg">
<path fill-rule="evenodd" clip-rule="evenodd" d="M373 44C373 65.2518 357.933 82.9847 337.899 87.0996C337.966 88.0577 338 89.0249 338 90C338 111.778 321.02 129.591 299.576 130.92C297.661 136.227 294.682 141.026 290.896 145.058C290.965 146.03 291 147.011 291 148C291 170.644 272.644 189 250 189C233.033 189 218.473 178.693 212.239 163.999C212.159 164 212.08 164 212 164C208.037 164 204.205 163.438 200.579 162.388C193.506 174.705 180.222 183 165 183C157.786 183 151.007 181.137 145.118 177.865C141.014 180.673 136.374 182.753 131.382 183.922C124.545 197.042 110.819 206 95 206C76.0403 206 60.0863 193.131 55.397 175.651C49.8645 178.433 43.6152 180 37 180C14.3563 180 -4 161.644 -4 139C-4 116.356 14.3563 98 37 98C55.9597 98 71.9137 110.869 76.603 128.349C79.4357 126.925 82.4563 125.819 85.6178 125.078C92.4552 111.958 106.181 103 122 103C129.214 103 135.993 104.863 141.882 108.135C148.463 103.633 156.424 101 165 101C168.963 101 172.795 101.562 176.421 102.612C183.494 90.2952 196.778 82 212 82C219.479 82 226.49 84.0023 232.526 87.5002C239.324 80.937 248.385 76.7021 258.424 76.0796C262.841 63.8394 272.919 54.305 285.497 50.6356C285.17 48.4714 285 46.2555 285 44C285 19.6995 304.699 0 329 0C353.301 0 373 19.6995 373 44Z" fill="white" fill-opacity="0.5"/>
</svg>
