<svg width="359" height="135" viewBox="0 0 359 135" fill="none" xmlns="http://www.w3.org/2000/svg">
<path fill-rule="evenodd" clip-rule="evenodd" d="M386 41C386 56.3071 377.612 69.655 365.181 76.6975C367.632 81.9545 369 87.8174 369 94C369 115.552 352.372 133.219 331.245 134.873C327.573 153.75 310.951 168 291 168C289.222 168 287.471 167.887 285.752 167.667C278.269 177.587 266.383 184 253 184C242.515 184 232.95 180.064 225.7 173.59C222.289 174.509 218.702 175 215 175C210.412 175 205.999 174.246 201.88 172.856C194.887 185.465 181.44 194 166 194C159.502 194 153.357 192.488 147.897 189.797C144.728 190.583 141.413 191 138 191C134.039 191 130.21 190.438 126.587 189.39C119.201 196.575 109.117 201 98 201C80.1535 201 64.9702 189.598 59.3379 173.68C53.8199 176.444 47.5916 178 41 178C18.3563 178 0 159.644 0 137C0 114.356 18.3563 96 41 96C58.8465 96 74.0298 107.402 79.6621 123.32C85.1801 120.556 91.4084 119 98 119C101.961 119 105.79 119.562 109.413 120.61C116.799 113.425 126.883 109 138 109C144.498 109 150.643 110.512 156.103 113.203C159.272 112.417 162.587 112 166 112C170.588 112 175.001 112.754 179.12 114.144C186.113 101.535 199.56 93 215 93C225.485 93 235.05 96.9356 242.3 103.41C245.711 102.491 249.298 102 253 102C254.778 102 256.529 102.113 258.248 102.333C265.12 93.222 275.706 87.0699 287.755 86.1265C290.077 74.1914 297.575 64.106 307.819 58.3025C305.368 53.0455 304 47.1826 304 41C304 18.3563 322.356 0 345 0C367.644 0 386 18.3563 386 41Z" fill="white"/>
</svg>
